<?xml version="1.0" encoding="utf-8"?>
<!-- Svg Vector Icons : http://www.onlinewebfonts.com/icon -->
<!DOCTYPE svg PUBLIC "-//W3C//DTD SVG 1.1//EN" "http://www.w3.org/Graphics/SVG/1.1/DTD/svg11.dtd">
<svg version="1.1" xmlns="http://www.w3.org/2000/svg" xmlns:xlink="http://www.w3.org/1999/xlink" x="0px" y="0px" viewBox="0 0 1000 1000" enable-background="new 0 0 1000 1000" xml:space="preserve">
<metadata> Svg Vector Icons : http://www.onlinewebfonts.com/icon </metadata>
<g><g transform="translate(0.000000,512.000000) scale(0.100000,-0.100000)"><path d="M2346.5,5103.3c-130.8-13.7-398.2-87.8-550.4-152.2c-228.4-97.6-427.4-228.4-618.7-411.8C869,4246.5,695.3,3942,566.5,3477.5c-17.6-66.4-25.4-601.2-35.1-2137.2l-9.8-2049.4L310.8-715L100-720.9l5.9-663.6l5.9-665.6l64.4-56.6c113.2-101.5,269.4-66.4,327.9,72.2l27.3,66.3h156.1c144.4,0,156.1-2,156.1-41c0-21.5,25.4-66.3,56.6-97.6c101.5-101.5,267.4-68.3,327.9,62.5l35.1,74.1l148.3,2c144.4,0,150.3-2,162-50.8c37.1-146.4,236.2-197.1,345.5-87.8l56.6,56.6v665.6v665.6h-204.9h-206.9l5.9,1986.9l5.9,1985l52.7,134.7c101.5,259.6,279.1,460.6,511.4,573.8c169.8,83.9,271.3,107.4,460.6,107.4c286.9,2,534.8-99.5,731.9-296.7c126.9-128.8,189.3-220.6,242-363c58.6-162,66.4-204.9,29.3-204.9c-17.6,0-60.5-29.3-97.6-66.4c-74.2-74.2-89.8-169.8-37.1-238.1c15.6-19.5,29.3-42.9,29.3-50.8c0-9.8-245.9-15.6-546.5-15.6h-546.5V-914.1v-3747.5h1344.8h1344.8l23.4-70.3c25.4-76.1,117.1-144.4,195.2-144.4s169.8,68.3,195.2,144.4l23.4,70.3h203c193.2,0,203-1.9,203-41c0-66.4,121-173.7,195.2-173.7c89.8,0,169.8,54.6,204.9,140.5l29.3,74.2h195.2h195.2l31.2-78.1c52.7-130.8,78.1-136.6,607-136.6c423.5,0,470.4,3.9,525,37.1c39,23.4,72.2,66.3,85.9,107.4l23.4,70.3h203c193.2,0,203-1.9,203-41c0-23.4,29.3-70.3,66.4-107.4l66.4-66.4h491.8h491.9l66.3,66.4c37.1,37.1,66.4,83.9,66.4,107.4c0,37.1,11.7,41,107.3,41H9900l-3.9,3741.6l-5.9,3743.6l-2531.5,5.9l-2531.5,3.9l41,70.3c39,66.4,39,76.1,13.7,152.2c-21.5,64.4-44.9,87.8-119.1,126.9c-83.9,39-93.7,52.7-93.7,109.3c0,117.1-97.6,447-183.5,628.5c-119.1,245.9-224.5,396.2-411.8,583.6C3625,4955,2996.5,5173.6,2346.5,5103.3z M2795.4,4685.6c91.7-9.8,214.7-33.2,273.3-50.8c564.1-160,1014.9-630.4,1151.6-1202.3c56.6-232.3,56.6-228.4-64.4-228.4h-103.5l-21.5,123c-44.9,267.4-181.5,519.2-398.2,733.9c-304.5,306.4-683.1,450.9-1110.6,425.5c-597.3-37.1-1098.9-421.6-1301.9-999.3l-54.6-156.1l-9.8-2020.1l-9.8-2020.1l-101.5-5.8l-103.4-5.9V1229c0,1694.2,3.9,1973.3,31.2,2113.8c130.8,700.7,712.4,1253,1415.1,1342.8C2569,4709.1,2612,4709.1,2795.4,4685.6z M9470.6-923.8v-3327.8H6142.8H2815v3327.8V2404h3327.8h3327.8V-923.8z M1565.8-1333.7v-204.9h-154.2c-148.3,0-154.2,2-165.9,50.8c-37.1,146.4-236.2,197.1-345.5,87.8c-31.2-31.2-56.6-76.1-56.6-97.6c0-39-11.7-41-156.1-41H531.4v204.9v204.9h517.2h517.2V-1333.7z"/><path d="M3330.2,1957c-70.3-42.9-113.2-146.4-93.7-224.5c19.5-78.1,115.2-148.3,203-148.3c91.7,0,187.4,72.2,204.9,154.2c17.6,80-33.2,187.4-105.4,224.5C3461,2003.9,3404.4,2001.9,3330.2,1957z"/><path d="M5859.8,1982.4c-710.4-89.8-1301.8-370.8-1776.1-849c-868.5-872.5-1095-2172.3-571.9-3294.6c267.4-577.7,804.1-1120.3,1374.1-1385.8c712.4-333.8,1506.8-376.7,2232.9-119.1c985.7,351.3,1702,1192.6,1895.2,2234.8c54.7,285,48.8,806.1-7.8,1075.5C8754.3,823,7877.9,1697.4,6710.7,1937.5C6519.5,1976.5,6023.7,2001.9,5859.8,1982.4z M5937.8,1359.8c0-113.2-3.9-204.9-7.8-204.9s-78.1-13.7-162-29.3c-292.8-56.6-564.1-167.9-802.2-333.8c-68.3-46.8-128.8-85.9-136.6-85.9c-7.8,0-78.1,64.4-156.1,142.5l-140.5,142.5l91.7,70.3c218.6,163.9,450.9,290.8,689,374.7c160.1,56.6,460.6,124.9,562.1,126.9l62.4,2V1359.8z M6642.4,1525.7c347.4-70.3,704.6-228.4,981.8-431.3l134.7-99.5l-148.3-148.3l-148.4-148.3l-83.9,60.5c-281.1,201-595.3,327.9-956.4,386.5l-74.2,11.7v203v204.9h50.7C6425.8,1564.7,6535.1,1547.1,6642.4,1525.7z M5937.8,522.4v-203l-140.5-42.9c-78.1-23.4-195.2-72.2-261.6-107.4l-117.1-66.3l-140.5,140.5c-78.1,78.1-140.5,146.4-140.5,154.2c0,21.5,244,167.8,368.9,220.5c124.9,52.7,310.3,103.4,388.4,105.4C5935.9,725.4,5937.8,719.6,5937.8,522.4z M6581.9,684.4c165.9-44.9,429.4-167.9,517.2-240.1l58.6-48.8l-144.4-146.4l-144.4-144.4l-99.6,54.6c-113.2,62.5-216.6,105.4-337.6,136.6l-83.9,21.5v203C6347.7,760.6,6338,752.8,6581.9,684.4z M4394,542l142.5-142.5L4460.3,298c-169.8-224.5-314.2-562.1-363-853l-25.4-154.2l-208.8-5.8c-115.2-1.9-208.8,1.9-208.8,9.8s13.7,97.6,29.3,197.1c60.5,367,212.7,735.8,433.3,1042.3c60.5,83.9,115.2,152.2,121,152.2C4245.6,686.4,4313.9,622,4394,542z M8209.7,483.4c124.9-189.3,222.5-380.6,292.8-573.8c52.7-146.4,128.8-489.9,128.8-577.7v-50.8h-204.9h-203l-11.7,74.2c-62.4,367-187.4,677.3-386.4,956.4l-60.5,83.9L7909.2,540c113.2,113.2,150.3,140.5,169.8,123C8094.6,651.3,8153.1,569.3,8209.7,483.4z M5100.5-234.9c-64.4-103.4-128.8-247.9-158.1-357.2l-33.2-117.1l-208.8-5.8l-210.8-5.9l13.7,83.9c35.1,210.8,142.5,474.3,269.3,657.7l58.6,83.9l148.3-148.3C5120-184.1,5125.9-193.9,5100.5-234.9z M7579.3-78.7c91.8-154.2,185.4-402.1,206.9-552.4l11.7-87.8H7591h-206.9l-21.5,83.9c-27.3,107.4-107.3,300.6-156.2,374.8l-39,58.6L7310-59.2c76.1,76.1,148.3,138.6,160,134.7C7479.8,71.6,7530.5,3.3,7579.3-78.7z M5937.8-264.1v-150.3L5830.5-309l-109.3,107.4l93.7,42.9c50.7,25.4,99.5,44.9,109.3,44.9C5932-113.8,5937.8-182.2,5937.8-264.1z M6500-170.4l62.5-33.2L6455.1-309l-107.4-105.4v152.2C6347.7-94.3,6347.7-94.3,6500-170.4z M5531.9-595.9c50.7-50.7,93.7-99.5,93.7-107.4s-60.5-15.6-136.6-15.6c-107.4,0-136.6,5.8-136.6,29.3c0,37.1,58.6,185.4,74.2,185.4C5434.3-504.2,5481.1-545.2,5531.9-595.9z M6941.1-674c13.7-44.9,11.7-44.9-136.6-44.9h-152.3l105.4,107.3L6863-504.2l33.2-62.5C6913.7-601.8,6935.2-650.6,6941.1-674z M4089.5-1230.3c33.2-265.4,150.3-575.8,316.2-827.6l121-181.5l-142.5-140.5c-164-163.9-150.3-165.9-298.6,48.8c-124.9,181.5-263.5,464.5-324,665.6c-39,130.8-107.3,458.7-107.3,519.2c0,9.8,95.6,17.6,212.7,17.6h210.8L4089.5-1230.3z M4936.6-1230.3c13.7-56.6,60.5-173.7,103.4-259.6l78.1-154.2l-140.5-142.5c-78.1-78.1-146.4-142.5-152.2-142.5c-19.5,0-154.2,224.5-204.9,341.6c-48.8,111.3-126.9,374.7-126.9,433.3c0,19.5,46.8,25.4,210.8,25.4h208.8L4936.6-1230.3z M5537.7-1226.4c-101.5-103.4-117.1-111.3-132.7-72.2c-5.9,11.7-23.4,56.6-41,97.6l-31.3,72.2h150.3h150.3L5537.7-1226.4z M6941.1-1171.7c-5.9-25.4-27.3-74.2-44.9-109.3l-33.2-62.5l-105.4,107.3l-105.4,107.4h152.3C6952.8-1128.8,6954.7-1128.8,6941.1-1171.7z M7792-1163.9c0-144.4-173.7-573.8-292.8-726.1l-37.1-48.8l-148.3,148.3l-150.3,148.3l58.6,91.7c31.2,48.8,82,165.9,111.2,255.7l54.7,165.9h201C7772.5-1128.8,7792-1132.7,7792-1163.9z M8621.6-1249.8c-44.9-388.4-224.5-827.6-480.1-1173l-83.9-113.2L7915-2393.6c-78.1,78.1-142.5,148.3-142.5,156.1s39,68.3,85.9,136.6c162,232.3,279.1,513.3,331.8,796.3c17.6,87.8,31.2,163.9,31.2,167.9c0,3.9,93.7,7.8,206.9,7.8h206.9L8621.6-1249.8z M5933.9-1653.8l-5.9-78.1l-87.8,39c-46.8,21.5-89.8,42.9-95.6,48.8c-5.8,3.9,33.2,52.7,87.8,107.3l95.6,97.6l5.9-68.3C5937.8-1546.5,5937.8-1610.9,5933.9-1653.8z M6474.6-1538.7c52.7-52.7,91.8-99.6,85.9-105.4c-15.6-15.6-160-70.3-185.4-70.3c-21.5,0-27.3,33.2-27.3,136.6c0,76.1,7.8,136.6,15.6,136.6C6371.2-1441.1,6421.9-1484,6474.6-1538.7z M5586.5-2032.5c80-39,193.2-83.9,249.8-95.6l101.5-25.4v-210.8v-210.8l-72.2,13.7c-251.8,42.9-558.2,175.7-726.1,314.2c-11.7,9.8,277.2,300.6,290.8,294.7C5436.2-1956.3,5506.5-1991.5,5586.5-2032.5z M7028.9-2093l142.5-144.4l-83.9-56.6c-183.5-126.9-447-234.2-657.7-269.3l-83.9-13.7l5.9,208.8l5.8,208.8l146.4,46.8c80,25.4,191.3,72.2,244,103.4c54.7,31.2,107.4,56.6,117.1,58.6C6876.6-1948.5,6948.9-2012.9,7028.9-2093z M5207.9-2776.1c183.5-93.7,390.4-162,575.8-191.3l154.2-23.4v-210.8c0-115.1-7.8-210.8-17.5-210.8c-60.5,0-388.4,68.3-519.2,107.4c-201,60.5-484,199.1-665.6,324c-214.7,148.3-212.7,134.7-48.8,298.6l142.5,144.4l121-85.9C5016.6-2668.8,5133.7-2739,5207.9-2776.1z M7612.5-2676.6c76.1-78.1,140.5-146.4,140.5-152.2c0-5.9-68.3-60.5-152.2-121c-306.5-220.6-675.4-372.8-1042.3-433.3c-99.5-15.6-189.3-29.3-197.1-29.3c-7.8,0-11.7,93.7-9.8,208.8l5.8,208.8l140.5,23.4c288.8,48.8,657.7,203,854.9,357.2c54.7,43,101.5,78.1,107.4,78.1C7466.1-2534.1,7534.4-2598.5,7612.5-2676.6z"/><path d="M8750.4,1966.8c-113.2-62.5-134.6-232.3-42.9-326c95.7-93.7,277.1-66.4,329.9,50.8c42.9,91.7,29.3,163.9-43,236.2C8922.2,2000,8836.3,2013.6,8750.4,1966.8z"/><path d="M3347.8-3443.6c-76.1-37.1-130.8-144.4-113.2-222.5c15.6-72.2,93.7-150.3,165.9-165.9c80-17.6,185.4,37.1,222.5,117.1c17.6,35.1,31.2,74.2,31.2,87.8c0,58.6-66.4,156.1-126.9,183.5C3447.3-3404.6,3425.9-3404.6,3347.8-3443.6z"/><path d="M8793.3-3426.1c-23.4-3.9-66.4-35.1-93.7-66.3c-136.6-165.9,35.1-404,230.3-322.1c72.2,29.3,130.8,115.1,130.8,187.4c0,72.2-58.6,158.1-126.9,187.4c-37.1,15.6-74.2,25.4-82,25.4C8844.1-3416.3,8816.7-3422.2,8793.3-3426.1z"/></g></g>
</svg>